<?xml version="1.0" standalone="no"?>
<!DOCTYPE svg PUBLIC "-//W3C//DTD SVG 1.1//EN" "http://www.w3.org/Graphics/SVG/1.1/DTD/svg11.dtd" >
<svg xmlns="http://www.w3.org/2000/svg">
<metadata>Generated by IcoMoon</metadata>
<defs>
<font id="icomoon" horiz-adv-x="1024">
<font-face units-per-em="1024" ascent="960" descent="-64" />
<missing-glyph horiz-adv-x="1024" />
<glyph unicode="&#x20;" horiz-adv-x="512" d="" />
<glyph unicode="&#xe900;" glyph-name="icon01" d="M532.196 448l428.658 428.942c5.689 5.689 5.689 14.507 0 20.196s-14.507 5.689-20.196 0l-428.658-428.942-428.942 428.658c-5.689 5.689-14.507 5.689-20.196 0s-5.689-14.507 0-20.196l428.942-428.658-428.658-428.942c-5.689-5.689-5.689-14.507 0-20.196 2.844-2.844 6.542-4.267 9.956-4.267s7.396 1.422 9.956 4.267l428.942 428.942 428.942-428.942c2.844-2.844 6.542-4.267 9.956-4.267s7.396 1.422 9.956 4.267c5.689 5.689 5.689 14.507 0 20.196l-428.658 428.942z" />
<glyph unicode="&#xe901;" glyph-name="icon02" d="M181.76 56.889c-74.524 0-122.88 49.493-122.88 126.293 0 38.684 12.8 71.111 38.116 95.858 38.684 37.831 105.813 56.889 200.249 56.889 0 0 0 0 0 0v38.684c0 53.76-14.791 69.973-63.147 69.973-33.564 0-79.929-9.102-124.018-24.462-4.551-1.138-9.387-0.569-13.084 1.991-3.698 2.844-5.973 7.111-5.973 11.662v57.458c0 5.404 3.129 10.524 8.249 12.8 42.951 20.196 99.84 32.711 148.764 32.711 95.289 0 149.902-49.209 149.902-135.111v-234.098l9.387-83.627c0.569-3.982-0.853-7.964-3.413-11.093-2.844-3.129-6.542-4.836-10.524-4.836h-61.724c-6.827 0-12.8 4.836-13.938 11.662l-5.973 33.564c-33.28-34.987-80.782-56.32-129.991-56.32zM296.676 307.484c-86.471 0-147.058-16.498-180.053-48.924-19.627-19.058-29.582-44.658-29.582-75.378 0-61.44 35.271-97.849 94.436-97.849 48.071 0 94.436 24.178 121.458 63.431 2.56 3.982 7.111 6.258 11.662 6.258h5.973c6.827 0 12.8-4.836 13.938-11.662l8.249-46.649h33.849l-7.964 69.404v235.52c0 88.178-65.991 106.667-121.458 106.667-40.96 0-90.453-10.24-128.569-26.453v-28.444c40.96 12.516 82.773 19.911 114.631 19.911 65.138 0 91.591-28.444 91.591-98.418v-52.907c0-3.698-1.422-7.396-4.267-10.24-2.844-2.56-6.827-3.982-10.24-3.982-3.982-0.284-8.818-0.284-13.653-0.284zM202.809 116.053c-44.942 0-71.68 27.876-71.68 74.24 0 87.324 100.978 87.324 134.258 87.324h46.080c7.964 0 14.222-6.258 14.222-14.222v-72.249c0-3.413-1.138-6.827-3.413-9.387-34.418-39.822-81.351-65.707-119.467-65.707zM265.387 249.173c-93.867 0-105.813-31.573-105.813-58.88 0-30.72 14.222-45.796 43.236-45.796 28.729 0 65.991 20.764 94.436 52.053v52.622h-31.858zM311.467 191.147v0 0zM950.898 67.982h-81.351c-6.258 0-11.662 3.982-13.653 9.956l-48.924 157.867h-184.889l-48.071-157.582c-1.707-5.973-7.396-9.956-13.653-9.956h-76.231c-4.551 0-8.818 2.276-11.378 5.973s-3.413 8.249-1.991 12.8l186.027 585.102c1.991 5.973 7.396 9.956 13.653 9.956h89.884c6.258 0 11.662-3.982 13.653-9.956l190.293-585.387c1.422-4.267 0.569-9.102-1.991-12.8s-6.827-5.973-11.378-5.973zM880.071 96.427h51.2l-181.191 556.658h-69.404l-177.209-556.658h46.080l48.071 157.867c1.707 5.973 7.396 9.956 13.653 9.956h205.938c6.258 0 11.662-3.982 13.653-9.956l49.209-157.867zM798.436 296.676h-168.676c-4.551 0-8.818 2.276-11.378 5.689-2.56 3.698-3.413 8.249-2.276 12.516l83.911 274.489c1.707 5.973 7.396 9.956 13.653 9.956 0 0 0 0 0 0 6.258 0 11.662-3.982 13.653-9.956l84.764-274.489c1.422-4.267 0.569-9.102-2.276-12.516s-6.827-5.689-11.378-5.689zM648.818 325.12h130.276l-65.422 211.627-64.853-211.627z" />
<glyph unicode="&#xe902;" glyph-name="icon03" d="M731.307-5.12c-2.56 0-5.12 0.569-7.396 1.991l-362.382 217.316h-288.427c-7.964 0-14.222 6.258-14.222 14.222v438.898c0 7.964 6.258 14.222 14.222 14.222h288.711l362.382 217.316c4.267 2.56 9.956 2.56 14.222 0.284 4.551-2.56 7.111-7.396 7.111-12.516v-877.796c0-5.12-2.844-9.956-7.111-12.516-2.276-0.853-4.551-1.422-7.111-1.422zM87.324 242.916h278.471c2.56 0 5.12-0.569 7.396-1.991l344.178-206.507v827.449l-344.178-206.507c-2.276-1.422-4.836-1.991-7.396-1.991h-278.471v-410.453zM804.693 287.573c-3.698 0-7.396 1.422-9.956 4.267-5.689 5.689-5.689 14.507 0 20.196 0.284 0.284 32.427 35.271 32.427 136.249s-32.142 135.964-32.427 136.249c-5.404 5.689-5.12 14.507 0.284 19.911 5.689 5.404 14.507 5.404 19.911 0 1.707-1.707 40.676-42.098 40.676-156.444s-38.969-154.738-40.676-156.444c-3.129-2.56-6.827-3.982-10.24-3.982zM877.796 214.471c-3.698 0-7.396 1.422-9.956 4.267-5.689 5.404-5.689 14.507 0 20.196 0.569 0.569 69.12 71.396 69.12 209.351s-68.267 208.782-69.12 209.351c-5.404 5.689-5.404 14.507 0 20.196 5.404 5.404 14.507 5.689 20.196 0 3.129-3.129 77.369-79.076 77.369-229.547s-74.24-226.418-77.369-229.547c-3.129-3.129-6.542-4.267-10.24-4.267z" />
<glyph unicode="&#xe903;" glyph-name="icon04" d="M957.44 679.822c-4.551 2.56-10.24 2.276-14.507-0.569l-197.404-131.413v192.853c0 7.964-6.258 14.222-14.222 14.222h-658.204c-7.964 0-14.222-6.258-14.222-14.222v-585.102c0-7.964 6.258-14.222 14.222-14.222h658.204c7.964 0 14.222 6.258 14.222 14.222v192.853l197.404-131.413c2.276-1.707 5.12-2.276 7.964-2.276 2.276 0 4.551 0.569 6.827 1.707 4.551 2.56 7.396 7.396 7.396 12.516v438.329c0 5.404-2.844 10.24-7.68 12.516zM717.084 169.529h-629.76v556.942h629.76v-556.942zM936.676 255.147l-190.862 127.431v130.844l190.862 127.431v-385.707z" />
<glyph unicode="&#xe904;" glyph-name="icon05" d="M950.898 214.471h-877.796c-7.964 0-14.222 6.258-14.222 14.222v512c0 7.964 6.258 14.222 14.222 14.222h877.796c7.964 0 14.222-6.258 14.222-14.222v-512c0-7.964-6.258-14.222-14.222-14.222zM87.324 242.916h849.351v483.556h-849.351v-483.556zM658.204 141.084h-292.409c-7.964 0-14.222 6.258-14.222 14.222s6.258 14.222 14.222 14.222h292.693c7.964 0 14.222-6.258 14.222-14.222s-6.542-14.222-14.507-14.222z" />
<glyph unicode="&#xe905;" glyph-name="icon06" d="M367.218 653.084h108.373c2.56 0 5.12 0.569 7.396 1.991l344.178 206.507v-668.444l28.444-28.444v722.204c0 5.12-2.844 9.956-7.111 12.516-4.551 2.56-9.956 2.56-14.222-0.284l-362.667-217.6h-132.836l28.444-28.444zM826.88 72.818v-38.4l-344.178 206.507c-2.276 1.422-4.836 1.991-7.396 1.991h-278.187v410.169h49.493l-28.444 28.444h-35.271c-7.964 0-14.222-6.258-14.222-14.222v-438.898c0-7.964 6.258-14.222 14.222-14.222h288.711l362.382-217.316c2.276-1.422 4.836-1.991 7.396-1.991 2.276 0 4.836 0.569 7.111 1.707 4.551 2.56 7.111 7.396 7.111 12.516v35.271l-28.729 28.444zM950.898-5.12c-3.698 0-7.396 1.422-9.956 4.267l-877.796 877.796c-5.689 5.689-5.689 14.507 0 20.196s14.507 5.689 20.196 0l877.796-877.796c5.689-5.689 5.689-14.507 0-20.196-3.129-2.844-6.542-4.267-10.24-4.267z" />
<glyph unicode="&#xe906;" glyph-name="icon07" d="M438.898 506.88h-365.796c-7.964 0-14.222 6.258-14.222 14.222v365.796c0 7.964 6.258 14.222 14.222 14.222h365.796c7.964 0 14.222-6.258 14.222-14.222v-365.796c0-7.964-6.258-14.222-14.222-14.222zM87.324 535.324h337.351v337.351h-337.351v-337.351zM950.898 506.88h-365.796c-7.964 0-14.222 6.258-14.222 14.222v365.796c0 7.964 6.258 14.222 14.222 14.222h365.796c7.964 0 14.222-6.258 14.222-14.222v-365.796c0-7.964-6.258-14.222-14.222-14.222zM599.324 535.324h337.351v337.351h-337.351v-337.351zM438.898-5.12h-365.796c-7.964 0-14.222 6.258-14.222 14.222v365.796c0 7.964 6.258 14.222 14.222 14.222h365.796c7.964 0 14.222-6.258 14.222-14.222v-365.796c0-7.964-6.258-14.222-14.222-14.222zM87.324 23.324h337.351v337.351h-337.351v-337.351zM950.898-5.12h-365.796c-7.964 0-14.222 6.258-14.222 14.222v365.796c0 7.964 6.258 14.222 14.222 14.222h365.796c7.964 0 14.222-6.258 14.222-14.222v-365.796c0-7.964-6.258-14.222-14.222-14.222zM599.324 23.324h337.351v337.351h-337.351v-337.351z" />
<glyph unicode="&#xe907;" glyph-name="icon08" d="M877.796 141.084c-7.964 0-14.222 6.258-14.222 14.222v292.693c0 193.707-157.582 351.573-351.573 351.573s-351.573-157.867-351.573-351.573v-292.693c0-7.964-6.258-14.222-14.222-14.222s-14.222 6.258-14.222 14.222v292.693c0 209.636 170.382 380.018 380.018 380.018s380.018-170.382 380.018-380.018v-292.693c0-7.68-6.542-14.222-14.222-14.222zM804.693 67.982h-36.693c-47.787 0-86.756 38.969-86.756 86.756v74.24c0 47.787 38.969 86.756 86.756 86.756h36.693c7.964 0 14.222-6.258 14.222-14.222v-219.307c0-7.68-6.542-14.222-14.222-14.222zM767.716 287.573c-32.142 0-58.311-26.169-58.311-58.311v-74.24c0-32.142 26.169-58.311 58.311-58.311h22.471v190.862h-22.471zM256 67.982h-36.693c-7.964 0-14.222 6.258-14.222 14.222v219.307c0 7.964 6.258 14.222 14.222 14.222h36.693c48.071 0 87.040-38.969 87.040-87.040v-73.671c0.284-47.787-38.969-87.040-87.040-87.040zM233.529 96.427h22.471c32.427 0 58.596 26.169 58.596 58.596v73.671c0 32.427-26.453 58.596-58.596 58.596h-22.471v-190.862z" />
<glyph unicode="&#xe908;" glyph-name="icon09" d="M818.916 484.693c0 88.462-71.964 160.427-160.427 160.427s-160.427-71.964-160.427-160.427c0-3.698 0.569-7.68 0.853-11.378-29.013 16.498-62.009 25.6-96.427 25.6-91.876 0-169.813-62.009-191.147-149.902-9.387 2.276-18.773 3.413-28.16 3.413-68.267 0-124.018-55.467-124.018-124.018s55.467-124.018 124.018-124.018h402.204c88.462 0 160.427 71.964 160.427 160.427 0 27.022-6.827 52.338-18.489 74.809 55.182 26.738 91.591 82.489 91.591 145.067zM585.102 133.12h-402.204c-52.622 0-95.573 42.951-95.573 95.573s42.951 95.573 95.573 95.573c11.093 0 22.756-2.276 34.133-6.542 3.982-1.422 8.533-1.138 12.231 0.853 3.698 2.276 6.258 5.973 6.827 9.956 13.084 82.204 83.058 141.938 166.4 141.938 54.613 0 105.813-26.738 137.671-71.396 3.413-4.836 9.387-7.111 14.791-5.689 11.093 2.56 21.049 3.982 30.436 3.982 72.818 0 131.982-59.164 131.982-131.982s-59.449-132.267-132.267-132.267zM711.396 364.089c-29.298 37.547-75.093 61.724-126.293 61.724-8.818 0-17.92-0.853-27.591-2.56-7.964 10.24-17.067 19.342-26.738 27.591-2.844 11.093-4.551 22.471-4.551 34.133 0 72.818 59.164 131.982 131.982 131.982s131.982-59.164 131.982-131.982c0.284-52.907-31.289-100.124-78.791-120.889zM658.204 689.778c-7.964 0-14.222 6.258-14.222 14.222v73.102c0 7.964 6.258 14.222 14.222 14.222s14.222-6.258 14.222-14.222v-73.102c0-7.964-6.258-14.222-14.222-14.222zM950.898 470.471h-73.102c-7.964 0-14.222 6.258-14.222 14.222s6.258 14.222 14.222 14.222h73.102c7.964 0 14.222-6.258 14.222-14.222s-6.258-14.222-14.222-14.222zM826.027 638.009c-3.698 0-7.396 1.422-9.956 4.267-5.689 5.689-5.689 14.507 0 20.196l51.769 51.769c5.689 5.689 14.507 5.689 20.196 0s5.689-14.507 0-20.196l-51.769-51.769c-3.129-2.844-6.542-4.267-10.24-4.267zM490.667 638.009c-3.698 0-7.396 1.422-9.956 4.267l-51.769 51.769c-5.689 5.689-5.689 14.507 0 20.196s14.507 5.689 20.196 0l51.769-51.769c5.689-5.689 5.689-14.507 0-20.196-3.129-2.844-6.542-4.267-10.24-4.267zM877.796 250.88c-3.698 0-7.396 1.422-9.956 4.267l-51.769 51.769c-5.689 5.689-5.689 14.507 0 20.196s14.507 5.689 20.196 0l51.769-51.769c5.689-5.689 5.689-14.507 0-20.196-3.129-2.844-6.827-4.267-10.24-4.267z" />
<glyph unicode="&#xe909;" glyph-name="icon10" d="M731.307-7.111c-3.413 0-6.542 1.138-9.387 3.129l-246.613 176.071-246.613-176.071c-4.836-3.413-11.378-3.982-16.782-1.138s-8.818 8.249-8.818 14.507v731.307c0 8.818 7.111 16.213 16.213 16.213h512c8.818 0 16.213-7.111 16.213-16.213v-731.307c0-5.973-3.413-11.662-8.818-14.507-2.276-1.422-4.836-1.991-7.396-1.991zM475.307 208.213c3.413 0 6.542-1.138 9.387-3.129l230.4-164.693v684.089h-479.573v-683.804l230.4 164.693c2.844 1.707 6.258 2.844 9.387 2.844zM804.693 214.471c-7.964 0-14.222 6.258-14.222 14.222v643.982h-483.556v-58.88c0-7.964-6.258-14.222-14.222-14.222s-14.222 6.258-14.222 14.222v73.102c0 7.964 6.258 14.222 14.222 14.222h512c7.964 0 14.222-6.258 14.222-14.222v-658.204c0-7.964-6.542-14.222-14.222-14.222z" />
<glyph unicode="&#xe90a;" glyph-name="icon11" d="M731.307-5.12c-2.56 0-5.12 0.569-7.396 1.991l-362.382 217.316h-288.427c-7.964 0-14.222 6.258-14.222 14.222v438.898c0 7.964 6.258 14.222 14.222 14.222h288.711l362.382 217.316c4.267 2.56 9.956 2.844 14.222 0.284s7.111-7.396 7.111-12.516v-877.796c0-5.12-2.844-9.956-7.111-12.516-2.276-0.853-4.551-1.422-7.111-1.422zM87.324 242.916h278.471c2.56 0 5.12-0.569 7.396-1.991l344.178-206.507v827.449l-344.178-206.507c-2.276-1.422-4.836-1.991-7.396-1.991h-278.471v-410.453z" />
<glyph unicode="&#xe90b;" glyph-name="icon12" d="M818.916 594.204c0 88.462-71.964 160.427-160.427 160.427s-160.427-71.964-160.427-160.427c0-3.698 0.569-7.68 0.853-11.378-29.013 16.498-62.009 25.6-96.427 25.6-91.876 0-169.813-62.009-191.147-149.618-9.387 2.276-18.773 3.413-28.16 3.413-68.267 0-124.018-55.751-124.018-124.018s55.467-124.018 124.018-124.018h402.204c88.462 0 160.427 71.964 160.427 160.427 0 27.022-6.827 52.338-18.489 74.809 55.182 26.738 91.591 82.489 91.591 144.782zM585.102 242.916h-402.204c-52.622 0-95.573 42.951-95.573 95.573s42.951 95.573 95.573 95.573c11.093 0 22.756-2.276 34.133-6.542 3.982-1.422 8.533-1.138 12.231 0.853 3.698 2.276 6.258 5.973 6.827 9.956 13.084 82.204 83.058 141.938 166.4 141.938 54.613 0 106.098-26.738 137.671-71.396 3.413-4.836 9.387-7.111 14.791-5.689 11.093 2.56 21.049 3.982 30.436 3.982 72.818 0 131.982-59.164 131.982-131.982s-59.449-132.267-132.267-132.267zM711.396 473.6c-29.298 37.547-75.093 61.724-126.293 61.724-8.818 0-17.92-0.853-27.591-2.56-7.964 10.24-17.067 19.342-26.738 27.591-2.844 11.093-4.551 22.471-4.551 34.133 0 72.818 59.164 131.982 131.982 131.982s131.982-59.164 131.982-131.982c0.284-52.907-31.289-99.84-78.791-120.889zM658.204 799.573c-7.964 0-14.222 6.258-14.222 14.222v73.102c0 7.964 6.258 14.222 14.222 14.222s14.222-6.258 14.222-14.222v-73.102c0-7.964-6.258-14.222-14.222-14.222zM950.898 579.982h-73.102c-7.964 0-14.222 6.258-14.222 14.222s6.258 14.222 14.222 14.222h73.102c7.964 0 14.222-6.258 14.222-14.222s-6.258-14.222-14.222-14.222zM826.027 747.804c-3.698 0-7.396 1.422-9.956 4.267-5.689 5.689-5.689 14.507 0 20.196l51.769 51.769c5.689 5.689 14.507 5.689 20.196 0s5.689-14.507 0-20.196l-51.769-51.769c-3.129-2.844-6.542-4.267-10.24-4.267zM490.667 747.804c-3.698 0-7.396 1.422-9.956 4.267l-51.769 51.484c-5.689 5.689-5.689 14.507 0 20.196s14.507 5.689 20.196 0l51.769-51.769c5.689-5.689 5.689-14.507 0-20.196-3.129-2.56-6.542-3.982-10.24-3.982zM877.796 360.676c-3.698 0-7.396 1.422-9.956 4.267l-51.769 51.769c-5.689 5.689-5.689 14.507 0 20.196s14.507 5.689 20.196 0l51.769-51.769c5.689-5.689 5.689-14.507 0-20.196-3.129-2.844-6.827-4.267-10.24-4.267zM292.693-5.12c-3.698 0-7.396 1.422-9.956 4.267-5.689 5.689-5.689 14.507 0 20.196l48.924 48.924h-38.684c-5.689 0-10.809 3.413-13.084 8.818s-0.853 11.378 3.129 15.36l73.102 73.102c5.689 5.689 14.507 5.689 20.196 0s5.689-14.507 0-20.196l-48.924-48.924h38.684c5.689 0 10.809-3.413 13.084-8.818s0.853-11.378-3.129-15.36l-73.102-73.102c-3.129-2.844-6.827-4.267-10.24-4.267zM438.898-5.12c-3.698 0-7.396 1.422-9.956 4.267-5.689 5.689-5.689 14.507 0 20.196l48.924 48.924h-38.684c-5.689 0-10.809 3.413-13.084 8.818s-0.853 11.378 3.129 15.36l73.102 73.102c5.689 5.689 14.507 5.689 20.196 0s5.689-14.507 0-20.196l-48.924-48.924h38.4c5.689 0 10.809-3.413 13.084-8.818s0.853-11.378-3.129-15.36l-73.102-73.102c-2.844-2.844-6.258-4.267-9.956-4.267z" />
<glyph unicode="&#xe90c;" glyph-name="icon13" d="M804.693-5.12h-585.387c-7.964 0-14.222 6.258-14.222 14.222v585.102c0 7.964 6.258 14.222 14.222 14.222h219.307c7.964 0 14.222-6.258 14.222-14.222s-6.258-14.222-14.222-14.222h-205.084v-556.658h556.658v556.658h-205.084c-7.964 0-14.222 6.258-14.222 14.222s6.258 14.222 14.222 14.222h219.307c7.964 0 14.222-6.258 14.222-14.222v-585.102c0.284-7.964-6.258-14.222-13.938-14.222zM668.444 750.649l-146.204 146.204c-1.422 1.422-2.844 2.276-4.551 3.129-3.413 1.422-7.396 1.422-10.809 0-1.707-0.853-3.413-1.707-4.551-3.129l-146.773-146.204c-5.689-5.689-5.689-14.507 0-20.196s14.507-5.689 20.196 0l122.027 122.027v-550.684c0-7.964 6.258-14.222 14.222-14.222s14.222 6.258 14.222 14.222v550.684l122.027-122.027c2.844-2.844 6.542-4.267 9.956-4.267s7.396 1.422 9.956 4.267c5.689 5.689 5.689 14.507 0.284 20.196z" />
<glyph unicode="&#xe90d;" glyph-name="icon14" d="M731.307-5.12c-2.56 0-5.12 0.569-7.396 1.991l-362.382 217.316h-288.427c-7.964 0-14.222 6.258-14.222 14.222v438.898c0 7.964 6.258 14.222 14.222 14.222h288.711l362.382 217.316c4.267 2.56 9.956 2.844 14.222 0.284s7.111-7.396 7.111-12.516v-877.796c0-5.12-2.844-9.956-7.111-12.516-2.276-0.853-4.551-1.422-7.111-1.422zM87.324 242.916h278.471c2.56 0 5.12-0.569 7.396-1.991l344.178-206.507v827.449l-344.178-206.507c-2.276-1.422-4.836-1.991-7.396-1.991h-278.471v-410.453zM804.693 287.573c-3.698 0-7.396 1.422-9.956 4.267-5.689 5.689-5.689 14.507 0 20.196 0.284 0.284 32.427 35.271 32.427 136.249s-32.142 135.964-32.427 136.249c-5.404 5.689-5.12 14.507 0.284 19.911 5.689 5.404 14.507 5.404 19.911 0 1.707-1.707 40.676-42.098 40.676-156.444s-38.969-154.738-40.676-156.444c-3.129-2.56-6.827-3.982-10.24-3.982z" />
<glyph unicode="&#xe90e;" glyph-name="icon15" d="M818.916 594.204c0 88.462-71.964 160.427-160.427 160.427s-160.427-71.964-160.427-160.427c0-3.698 0.569-7.68 0.853-11.378-29.013 16.498-62.009 25.6-96.427 25.6-91.876 0-169.813-62.009-191.147-149.618-9.387 2.276-18.773 3.413-28.16 3.413-68.267 0-124.018-55.751-124.018-124.018s55.467-124.018 124.018-124.018h402.204c88.462 0 160.427 71.964 160.427 160.427 0 27.022-6.827 52.338-18.489 74.809 55.182 26.738 91.591 82.489 91.591 144.782zM585.102 242.916h-402.204c-52.622 0-95.573 42.951-95.573 95.573s42.951 95.573 95.573 95.573c11.093 0 22.756-2.276 34.133-6.542 3.982-1.422 8.533-1.138 12.231 0.853 3.698 2.276 6.258 5.973 6.827 9.956 13.084 82.204 83.058 141.938 166.4 141.938 54.613 0 106.098-26.738 137.671-71.396 3.413-4.836 9.387-7.111 14.791-5.689 11.093 2.56 21.049 3.982 30.436 3.982 72.818 0 131.982-59.164 131.982-131.982s-59.449-132.267-132.267-132.267zM711.396 473.6c-29.298 37.547-75.093 61.724-126.293 61.724-8.818 0-17.92-0.853-27.591-2.56-7.964 10.24-17.067 19.342-26.738 27.591-2.844 11.093-4.551 22.471-4.551 34.133 0 72.818 59.164 131.982 131.982 131.982s131.982-59.164 131.982-131.982c0.284-52.907-31.289-99.84-78.791-120.889zM658.204 799.573c-7.964 0-14.222 6.258-14.222 14.222v73.102c0 7.964 6.258 14.222 14.222 14.222s14.222-6.258 14.222-14.222v-73.102c0-7.964-6.258-14.222-14.222-14.222zM950.898 579.982h-73.102c-7.964 0-14.222 6.258-14.222 14.222s6.258 14.222 14.222 14.222h73.102c7.964 0 14.222-6.258 14.222-14.222s-6.258-14.222-14.222-14.222zM826.027 747.804c-3.698 0-7.396 1.422-9.956 4.267-5.689 5.689-5.689 14.507 0 20.196l51.769 51.769c5.689 5.689 14.507 5.689 20.196 0s5.689-14.507 0-20.196l-51.769-51.769c-3.129-2.844-6.542-4.267-10.24-4.267zM490.667 747.804c-3.698 0-7.396 1.422-9.956 4.267l-51.769 51.484c-5.689 5.689-5.689 14.507 0 20.196s14.507 5.689 20.196 0l51.769-51.769c5.689-5.689 5.689-14.507 0-20.196-3.129-2.56-6.542-3.982-10.24-3.982zM877.796 360.676c-3.698 0-7.396 1.422-9.956 4.267l-51.769 51.769c-5.689 5.689-5.689 14.507 0 20.196s14.507 5.689 20.196 0l51.769-51.769c5.689-5.689 5.689-14.507 0-20.196-3.129-2.844-6.827-4.267-10.24-4.267zM146.204 67.982c-2.276 0-4.267 0.569-6.258 1.422-7.111 3.413-9.956 11.947-6.258 19.058l36.693 73.102c3.413 7.111 11.947 9.956 19.058 6.258 6.827-3.129 9.671-11.662 6.258-18.773l-36.693-73.102c-2.56-5.12-7.396-7.964-12.8-7.964zM256 31.573c-1.707 0-3.698 0.284-5.404 1.138-7.111 3.129-10.809 11.378-7.68 18.489l25.884 62.293c3.129 7.111 11.378 10.809 18.489 7.68s10.809-11.378 7.68-18.489l-25.884-62.293c-2.276-5.689-7.396-8.818-13.084-8.818zM365.796 67.982c-2.276 0-4.267 0.569-6.258 1.422-7.111 3.413-9.956 11.947-6.258 19.058l36.693 73.102c3.413 7.111 11.947 9.956 19.058 6.258 7.111-3.413 9.956-11.947 6.258-19.058l-36.693-73.102c-2.56-4.836-7.68-7.68-12.8-7.68zM475.307 31.573c-1.707 0-3.698 0.284-5.404 1.138-7.111 3.129-10.809 11.378-7.68 18.489l25.884 62.293c3.129 7.111 11.378 10.809 18.489 7.68s10.809-11.378 7.68-18.489l-25.884-62.293c-1.991-5.689-7.396-8.818-13.084-8.818zM585.102 67.982c-2.276 0-4.267 0.569-6.258 1.422-7.111 3.413-9.956 11.947-6.258 19.058l36.693 73.102c3.413 7.111 11.947 9.956 19.058 6.258 7.111-3.413 9.956-11.947 6.258-19.058l-36.693-73.102c-2.56-4.836-7.68-7.68-12.8-7.68z" />
<glyph unicode="&#xe90f;" glyph-name="icon16" d="M485.547 314.311v347.876c0 14.507-11.947 26.453-26.453 26.453s-26.453-11.947-26.453-26.453v-347.876c-46.364-11.662-80.782-53.76-80.782-103.822 0-59.164 48.071-107.236 107.236-107.236s107.236 48.071 107.236 107.236c0 50.062-34.418 92.16-80.782 103.822zM459.093 155.876c-29.867 0-54.329 24.462-54.329 54.329 0 30.151 24.462 54.329 54.329 54.329s54.329-24.462 54.329-54.329c0.284-29.867-24.178-54.329-54.329-54.329zM590.222 378.027v389.404c0 72.249-58.88 130.844-130.844 130.844-72.249 0-130.844-58.88-130.844-130.844v-389.12c-51.484-40.107-81.636-101.831-81.636-167.538 0-117.191 95.289-212.764 212.764-212.764 117.191 0 212.764 95.573 212.764 212.764-0.569 65.422-30.72 127.147-82.204 167.253zM459.093 50.347c-88.178 0-159.858 71.68-159.858 159.858 0 53.191 26.169 102.684 70.258 132.551 7.111 4.836 11.662 13.084 11.662 21.902v402.773c0 43.236 34.987 78.222 78.222 78.222s78.222-34.987 78.222-78.222v-402.489c0-8.818 4.267-16.782 11.662-21.902 44.089-29.867 70.258-79.36 70.258-132.551-0.284-88.178-71.964-160.142-160.427-160.142zM751.218 477.013h-81.636c-14.507 0-26.453-11.947-26.453-26.453s11.947-26.453 26.453-26.453h81.636c14.507 0 26.453 11.947 26.453 26.453s-11.947 26.453-26.453 26.453zM751.218 582.542h-81.636c-14.507 0-26.453-11.947-26.453-26.453s11.947-26.453 26.453-26.453h81.636c14.507 0 26.453 11.947 26.453 26.453s-11.947 26.453-26.453 26.453zM751.218 688.071h-81.636c-14.507 0-26.453-11.947-26.453-26.453s11.947-26.453 26.453-26.453h81.636c14.507 0 26.453 11.947 26.453 26.453s-11.947 26.453-26.453 26.453zM669.298 740.978h81.636c14.507 0 26.453 11.947 26.453 26.453s-11.947 26.453-26.453 26.453h-81.636c-14.507 0-26.453-11.947-26.453-26.453 0-14.791 11.947-26.453 26.453-26.453z" />
<glyph unicode="&#xe910;" glyph-name="icon17" d="M958.862 458.24l-438.898 294.116c-4.267 2.844-9.956 3.129-14.507 0.853-4.836-2.56-7.68-7.396-7.68-12.516v-267.662l-416.711 279.324c-4.267 2.844-9.956 3.129-14.507 0.853-4.836-2.56-7.68-7.396-7.68-12.516v-585.102c0-5.12 2.844-9.956 7.396-12.516 1.991-1.138 4.551-1.707 6.827-1.707 2.844 0 5.404 0.853 7.964 2.276l416.711 276.196v-264.533c0-5.12 2.844-9.956 7.396-12.516 1.991-1.138 4.551-1.707 6.827-1.707 2.844 0 5.404 0.853 7.964 2.276l438.898 290.987c3.982 2.56 6.258 7.111 6.258 11.947s-2.276 9.102-6.258 11.947zM87.324 182.044v531.911l399.076-267.662-399.076-264.249zM526.222 182.044v531.911l399.076-267.662-399.076-264.249z" />
<glyph unicode="&#xe911;" glyph-name="icon18" d="M804.693 535.324h-58.88v131.698c0 128.853-104.96 233.813-233.813 233.813-128.569 0-233.529-104.676-233.529-233.529v-132.267h-59.164c-7.964 0-14.222-6.258-14.222-14.222v-512c0-7.964 6.258-14.222 14.222-14.222h585.102c7.964 0 14.222 6.258 14.222 14.222v512c0.284 8.249-6.258 14.507-13.938 14.507zM306.916 667.591c0 112.924 91.876 205.084 205.084 205.084s205.369-92.16 205.369-205.369v-131.698h-410.453v131.982zM790.471 23.324h-556.942v483.556h556.658v-483.556z" />
<glyph unicode="&#xe912;" glyph-name="icon20" d="M438.898 67.982h-219.591c-7.964 0-14.222 6.258-14.222 14.222v731.591c0 7.964 6.258 14.222 14.222 14.222h219.307c7.964 0 14.222-6.258 14.222-14.222v-731.307c0.284-7.964-5.973-14.507-13.938-14.507zM233.529 96.427h190.862v703.147h-190.862v-703.147zM804.693 67.982h-219.307c-7.964 0-14.222 6.258-14.222 14.222v731.591c0 7.964 6.258 14.222 14.222 14.222h219.307c7.964 0 14.222-6.258 14.222-14.222v-731.307c0-7.964-6.542-14.507-14.222-14.507zM599.324 96.427h190.862v703.147h-190.862v-703.147z" />
<glyph unicode="&#xe913;" glyph-name="icon21" d="M402.204 31.573c-3.698 0-7.396 1.422-9.956 4.267l-292.693 292.409c-2.56 2.56-4.267 6.258-4.267 9.956s1.707 7.396 4.267 10.24l512 512c2.56 2.56 6.258 4.267 9.956 4.267h292.693c7.964 0 14.222-6.258 14.222-14.222v-292.693c0-3.698-1.422-7.396-4.267-9.956l-512-512c-2.56-2.844-6.258-4.267-9.956-4.267zM129.707 338.204l272.498-272.498 497.778 497.778v272.498h-272.498l-497.778-497.778zM731.307 543.573c-32.996 0-64.284 12.8-87.609 36.409-23.324 23.324-36.409 54.613-36.409 87.609s12.8 64.284 36.409 87.609c23.324 23.324 54.613 36.409 87.609 36.409s64.284-12.8 87.609-36.409c23.324-23.324 36.409-54.613 36.409-87.609s-12.8-64.284-36.409-87.609v0 0c-23.324-23.609-54.329-36.409-87.609-36.409zM731.307 762.88c-25.6 0-49.493-9.956-67.413-27.876s-27.876-42.098-27.876-67.413c0-25.6 9.956-49.493 27.876-67.413 36.124-36.124 98.987-36.124 135.111 0v0c17.92 17.92 27.876 42.098 27.876 67.413 0 25.6-9.956 49.493-27.876 67.413-18.204 17.92-42.098 27.876-67.698 27.876z" />
<glyph unicode="&#xe914;" glyph-name="icon22" d="M731.307 901.12c-128.569 0-233.529-104.676-233.529-233.529v-132.267h-424.676c-7.964 0-14.222-6.258-14.222-14.222v-512c0-7.964 6.258-14.222 14.222-14.222h512c7.964 0 14.222 6.258 14.222 14.222v512c0 7.964-6.258 14.222-14.222 14.222h-58.88v132.267c0 112.924 91.876 205.084 205.084 205.084s205.369-92.16 205.369-205.369v-145.92c0-7.964 6.258-14.222 14.222-14.222s14.222 6.258 14.222 14.222v145.92c0 128.853-104.96 233.813-233.813 233.813zM570.88 23.324h-483.556v483.556h483.556v-483.556z" />
<glyph unicode="&#xe915;" glyph-name="icon23" d="M877.796 67.982h-731.591c-7.964 0-14.222 6.258-14.222 14.222v731.591c0 7.964 6.258 14.222 14.222 14.222h731.307c7.964 0 14.222-6.258 14.222-14.222v-731.307c0.284-7.964-6.258-14.507-13.938-14.507zM160.427 96.427h702.862v703.147h-702.862v-703.147z" />
<glyph unicode="&#xe916;" glyph-name="icon24" d="M512 141.084c-335.076 0-451.129 298.667-452.267 301.796s-1.138 6.827 0 9.956c1.138 3.129 117.191 302.080 452.267 302.080s451.129-298.667 452.267-301.796c1.138-3.129 1.138-6.827 0-9.956s-117.191-302.080-452.267-302.080zM88.462 448c16.213-39.253 128-278.471 423.538-278.471s407.324 239.218 423.538 278.471c-16.213 39.253-128 278.471-423.538 278.471s-407.324-239.218-423.538-278.471zM512 630.898c-100.978 0-182.898-81.92-182.898-182.898s81.92-182.898 182.898-182.898 182.898 81.92 182.898 182.898-81.92 182.898-182.898 182.898zM512 374.898c-40.391 0-73.102 32.711-73.102 73.102s32.711 73.102 73.102 73.102 73.102-32.711 73.102-73.102-32.711-73.102-73.102-73.102z" />
<glyph unicode="&#xe917;" glyph-name="icon25" d="M877.796 139.947h-219.307c-8.533 0-15.36 6.827-15.36 15.36v130.844h-261.973v-130.844c0-8.533-6.827-15.36-15.36-15.36h-219.591c-8.533 0-15.36 6.827-15.36 15.36v512c0 8.533 6.827 15.36 15.36 15.36h731.307c8.533 0 15.36-6.827 15.36-15.36v-512c0.284-8.249-6.542-15.36-15.076-15.36zM673.564 170.667h188.587v481.28h-700.587v-481.28h188.587v130.844c0 8.533 6.827 15.36 15.36 15.36h292.693c8.533 0 15.36-6.827 15.36-15.36v-130.844zM658.204-6.258h-292.409c-8.533 0-15.36 6.827-15.36 15.36v73.102c0 8.533 6.827 15.36 15.36 15.36s15.36-6.827 15.36-15.36v-57.742h261.973v57.742c0 8.533 6.827 15.36 15.36 15.36s15.36-6.827 15.36-15.36v-73.102c-0.284-8.533-7.111-15.36-15.644-15.36zM585.102 213.333h-146.204c-8.533 0-15.36 6.827-15.36 15.36s6.827 15.36 15.36 15.36h146.204c8.533 0 15.36-6.827 15.36-15.36s-6.827-15.36-15.36-15.36zM585.102 66.844h-146.204c-8.533 0-15.36 6.827-15.36 15.36s6.827 15.36 15.36 15.36h146.204c8.533 0 15.36-6.827 15.36-15.36s-6.827-15.36-15.36-15.36zM585.102 139.947h-146.204c-8.533 0-15.36 6.827-15.36 15.36s6.827 15.36 15.36 15.36h146.204c8.533 0 15.36-6.827 15.36-15.36s-6.827-15.36-15.36-15.36zM804.693 725.333c-8.533 0-15.36 6.827-15.36 15.36v57.742h-554.667v-57.742c0-8.533-6.827-15.36-15.36-15.36s-15.36 6.827-15.36 15.36v73.102c0 8.533 6.827 15.36 15.36 15.36h585.102c8.533 0 15.36-6.827 15.36-15.36v-73.102c0.284-8.533-6.827-15.36-15.076-15.36z" />
<glyph unicode="&#xe918;" glyph-name="icon26" d="M73.102 141.084c-2.276 0-4.551 0.569-6.827 1.707-4.551 2.56-7.396 7.396-7.396 12.516v585.387c0 5.12 2.844 9.956 7.396 12.516 4.836 2.276 10.24 1.991 14.791-0.853l438.898-290.987c3.982-2.56 6.258-7.111 6.258-11.947s-2.276-9.102-6.258-11.947l-438.898-293.831c-2.276-1.707-5.12-2.56-7.964-2.56zM87.324 713.956v-531.911l399.076 267.662-399.076 264.249zM722.204 141.084h-137.102c-7.964 0-14.222 6.258-14.222 14.222v585.387c0 7.964 6.258 14.222 14.222 14.222h137.102c7.964 0 14.222-6.258 14.222-14.222v-585.102c0-7.964-6.258-14.507-14.222-14.507zM599.324 169.529h108.658v556.942h-108.658v-556.942zM950.898 141.084h-137.102c-7.964 0-14.222 6.258-14.222 14.222v585.387c0 7.964 6.258 14.222 14.222 14.222h137.102c7.964 0 14.222-6.258 14.222-14.222v-585.102c0-7.964-6.258-14.507-14.222-14.507zM828.018 169.529h108.658v556.942h-108.658v-556.942z" />
<glyph unicode="&#xe919;" glyph-name="icon27" d="M500.338 519.964c3.698 0.569 7.68 1.138 11.662 1.138 40.391 0 73.102-32.711 73.102-73.102 0-3.982-0.569-7.964-1.138-11.662l83.911-83.911c17.067 27.876 27.022 60.302 27.022 95.289 0 100.978-81.92 182.898-182.898 182.898-34.987 0-67.698-9.956-95.289-27.022l83.627-83.627zM523.662 376.036c-3.698-0.569-7.68-1.138-11.662-1.138-40.391 0-73.102 32.711-73.102 73.102 0 3.982 0.569 7.964 1.138 11.662l-83.911 83.911c-17.067-27.876-27.022-60.302-27.022-95.289 0-100.978 81.92-182.898 182.898-182.898 34.987 0 67.698 9.956 95.289 27.022l-83.627 83.627zM329.671 690.631c50.916 21.618 111.218 35.84 182.329 35.84 295.538 0 407.324-239.218 423.538-278.471-10.24-24.462-57.458-126.578-163.271-199.964l19.342-19.342c123.449 88.462 171.52 212.48 172.373 214.471 1.138 3.129 1.138 6.827 0 9.956-0.853 2.844-116.907 301.796-451.982 301.796-79.929 0-147.058-17.067-203.378-42.951l21.049-21.333zM694.329 205.369c-50.916-21.618-111.218-35.556-182.329-35.556-295.538-0.284-407.324 238.933-423.538 278.187 10.24 24.462 57.458 126.578 163.271 199.964l-19.342 19.342c-123.449-88.462-171.52-212.48-172.373-214.471-1.138-3.129-1.138-6.827 0-9.956 0.853-2.844 116.907-301.796 451.982-301.796 79.929 0 147.058 17.067 203.378 42.951l-21.049 21.333zM950.898-5.12c-3.698 0-7.396 1.422-9.956 4.267l-877.796 877.796c-5.689 5.689-5.689 14.507 0 20.196s14.507 5.689 20.196 0l877.796-877.796c5.689-5.689 5.689-14.507 0-20.196-3.129-2.844-6.542-4.267-10.24-4.267z" />
<glyph unicode="&#xe91a;" glyph-name="icon28" d="M512-9.387c-252.018 0-457.387 205.084-457.387 457.387s205.369 457.387 457.387 457.387 457.387-205.084 457.387-457.387-205.369-457.387-457.387-457.387zM512 868.409c-231.822 0-420.409-188.587-420.409-420.409s188.587-420.409 420.409-420.409 420.409 188.587 420.409 420.409-188.587 420.409-420.409 420.409zM512 429.511h-292.693c-10.24 0-18.489 8.249-18.489 18.489s8.249 18.489 18.489 18.489h274.204v274.204c0 10.24 8.249 18.489 18.489 18.489s18.489-8.249 18.489-18.489v-292.693c0-10.24-8.249-18.489-18.489-18.489z" />
<glyph unicode="&#xe91b;" glyph-name="icon19" d="M957.724 753.209c-4.836 2.276-10.24 1.991-14.791-0.853l-416.711-276.196v264.533c0 5.12-2.844 9.956-7.396 12.516s-10.24 2.276-14.507-0.569l-439.182-290.987c-3.982-2.56-6.258-7.111-6.258-11.947s2.276-9.102 6.258-11.947l438.898-294.116c2.276-1.707 5.12-2.276 7.964-2.276 2.276 0 4.551 0.569 6.827 1.707 4.551 2.56 7.396 7.396 7.396 12.516v267.662l416.711-279.324c2.276-1.707 5.12-2.276 7.964-2.276 2.276 0 4.551 0.569 6.827 1.707 4.551 2.56 7.396 7.396 7.396 12.516v584.818c0 5.12-2.844 9.956-7.396 12.516zM497.778 182.044l-399.076 267.662 399.076 264.533v-532.196zM936.676 182.044l-399.076 267.662 399.076 264.533v-532.196z" />
<glyph unicode="&#xe91c;" glyph-name="icon29" d="M877.796 722.204h-731.591c-10.24 0-18.489 8.249-18.489 18.489s8.249 18.489 18.489 18.489h731.307c10.24 0 18.489-8.249 18.489-18.489s-8.249-18.489-18.204-18.489zM877.796 431.218h-731.591c-10.24 0-18.489 8.249-18.489 18.489s8.249 18.489 18.489 18.489h731.307c10.24 0 18.489-8.249 18.489-18.489s-8.249-18.489-18.204-18.489zM877.796 137.102h-731.591c-10.24 0-18.489 8.249-18.489 18.489s8.249 18.489 18.489 18.489h731.307c10.24 0 18.489-8.249 18.489-18.489s-8.249-18.489-18.204-18.489z" />
<glyph unicode="&#xe91d;" glyph-name="icon30" d="M438.898 502.613c-4.836 0-9.387 1.707-13.084 5.404l-261.12 261.12v-174.933c0-10.24-8.249-18.489-18.489-18.489s-18.204 8.249-18.204 18.489v219.307c0 0.569 0 1.138 0 1.707 0.284 3.698 1.707 7.111 3.698 9.671 0.853 0.853 1.707 1.991 2.56 2.56 0 0 0 0 0 0v0c3.129 2.844 7.396 4.551 11.947 4.551 0 0 0 0 0 0s0 0 0 0v0c0 0 0 0 0 0v0c0 0 0 0 0 0h219.307c10.24 0 18.489-8.249 18.489-18.489s-8.249-18.489-18.489-18.489h-174.649l261.12-261.12c7.111-7.111 7.111-18.773 0-26.169-3.698-3.129-8.533-5.12-13.084-5.12zM877.796 63.716h-219.307c-10.24 0-18.489 8.249-18.489 18.489s8.249 18.489 18.489 18.489h174.933l-261.12 261.12c-7.111 7.111-7.111 18.773 0 26.169 7.111 7.111 18.773 7.111 26.169 0l261.12-261.12v174.933c0 10.24 8.249 18.489 18.489 18.489s18.489-8.249 18.489-18.489v-219.307c0-0.569 0-1.138 0-1.707-0.284-3.698-1.707-7.111-3.698-9.671-0.853-0.853-1.707-1.991-2.56-2.56 0 0 0 0 0 0v0c-3.698-2.844-7.964-4.551-12.516-4.836 0 0 0 0 0 0s0 0 0 0v0c0 0 0 0 0 0v0c0 0 0 0 0 0z" />
<glyph unicode="&#xe91e;" glyph-name="icon31" d="M512 901.973c-250.311 0-453.973-203.662-453.973-453.973 0-118.613 45.511-230.116 127.716-315.164 0 0 0 0 0.284-0.284 1.707-1.707 3.129-3.698 4.836-5.404 85.618-85.618 199.68-132.836 320.853-132.836 250.311 0 453.973 203.662 453.973 453.973s-203.378 453.689-453.689 453.689zM827.164 165.547c-53.476 85.049-80.782 179.769-80.782 281.6 0 102.4 27.591 197.12 81.351 282.453 67.129-75.093 108.089-173.511 108.089-281.884s-41.244-207.076-108.658-282.169zM196.551 730.169c53.476-85.333 81.067-180.053 81.067-282.169s-27.591-197.12-81.067-282.169c-69.973 77.653-108.373 176.924-108.373 282.169 0 108.373 41.244 207.076 108.373 282.169zM217.884 143.36c59.449 91.876 89.884 193.991 89.884 304.64 0 110.364-30.436 212.764-89.6 304.64 75.947 73.671 179.484 119.182 293.831 119.182s218.169-45.796 294.4-119.467c-59.449-91.876-89.884-194.276-89.884-304.924 0-110.364 30.151-212.48 89.316-304.071-76.231-73.671-179.769-119.182-293.831-119.182-110.649 0-214.756 42.382-294.116 119.182z" />
<glyph unicode="&#xe91f;" glyph-name="icon32" d="M877.796 63.716c-4.836 0-9.387 1.707-13.084 5.404l-261.12 261.12v-174.933c0-10.24-8.249-18.489-18.489-18.489s-18.489 8.249-18.489 18.489v219.307c0 0.569 0 1.138 0 1.707 0.284 3.698 1.707 7.111 3.698 9.671 0.853 1.138 1.707 1.991 2.56 2.844 3.129 2.844 7.396 4.551 11.947 4.551 0 0 0 0 0 0s0 0 0 0v0c0 0 0 0 0 0v0c0 0 0 0 0 0h219.307c10.24 0 18.489-8.249 18.489-18.489s-8.249-18.489-18.489-18.489h-174.933l261.12-261.12c7.111-7.111 7.111-18.773 0-26.169-3.129-3.413-7.964-5.404-12.516-5.404zM438.898 502.613h-219.591c-10.24 0-18.489 8.249-18.489 18.489s8.249 18.489 18.489 18.489h174.933l-261.12 261.12c-7.111 7.111-7.111 18.773 0 26.169 7.111 7.111 18.773 7.111 26.169 0l261.12-261.12v174.933c0 10.24 8.249 18.489 18.489 18.489s18.489-8.249 18.489-18.489v-219.307c0-0.569 0-1.138 0-1.707-0.284-3.698-1.707-7.111-3.698-9.671-0.853-1.138-1.707-1.991-2.56-2.844-3.413-2.844-7.396-4.551-12.231-4.551 0.284 0 0.284 0 0 0 0 0 0 0 0 0v0c0 0 0 0 0 0v0c0 0 0 0 0 0z" />
<glyph unicode="&#xe920;" glyph-name="icon33" d="M694.898 63.716c-69.689 0-131.129 28.729-190.578 56.604-58.311 27.307-113.493 53.191-174.933 53.191-122.596 0-242.631-104.107-243.769-105.244-5.404-4.836-13.084-5.973-19.911-2.844-6.542 2.844-10.809 9.387-10.809 16.782v658.489c0 6.542 3.413 12.516 9.102 15.929 5.404 3.129 130.844 75.662 265.387 75.662 69.689 0 131.413-29.867 190.862-58.88 58.311-28.444 113.493-54.898 174.933-54.898 122.311 0 242.347 107.804 243.484 108.942 5.404 4.836 13.084 6.258 19.911 3.129 6.542-2.844 11.093-9.671 11.093-16.782v-658.204c0-6.542-3.413-12.516-9.102-15.929-5.689-3.129-131.129-75.947-265.671-75.947zM329.102 210.489c69.689 0 131.129-28.729 190.578-56.604 58.311-27.307 113.493-53.191 174.933-53.191 104.676 0 207.076 49.493 237.511 65.707v608.711c-46.649-34.987-139.378-93.582-237.511-93.582-69.689 0-131.413 29.867-190.862 58.88-58.311 28.444-113.493 54.898-174.933 54.898-104.676 0-207.076-49.493-237.511-65.707v-609.564c46.649 33.564 139.662 90.453 237.796 90.453z" />
<glyph unicode="&#xe921;" glyph-name="icon61" d="M512 901.973c-250.311 0-453.973-203.662-453.973-453.973s203.662-453.973 453.973-453.973c121.173 0 235.236 47.218 320.853 132.836s132.836 199.68 132.836 320.853c0.284 250.596-203.378 454.258-453.689 454.258zM816.64 153.884c-38.4 25.031-78.791 44.658-120.889 59.164 27.876 60.302 47.787 133.973 49.778 220.16h189.44c-3.413-105.244-44.942-203.662-118.329-279.324zM88.747 432.924h189.44c2.276-86.187 22.187-159.573 49.778-220.16-42.098-14.507-82.204-34.133-120.604-58.88-70.258 72.818-114.631 170.951-118.613 279.040zM207.644 742.4c38.4-24.747 78.507-44.658 120.604-59.164-27.876-60.302-47.787-133.973-50.062-220.444h-189.44c3.982 108.658 48.356 206.791 118.898 279.609zM512 243.484c-53.476 0-104.676-7.396-153.884-21.333-27.307 57.742-47.502 128.284-49.778 210.773h407.609c-2.276-82.489-22.471-152.747-49.778-210.773-49.493 14.222-100.693 21.333-154.169 21.333zM651.947 195.129c-50.916-93.298-116.907-149.618-139.947-167.253-23.040 17.636-89.316 73.956-139.947 167.253 44.942 12.231 91.591 18.489 139.947 18.489s95.289-6.542 139.947-18.489zM308.053 463.076c2.276 82.489 22.471 153.031 49.778 210.773 49.493-13.938 100.978-21.333 154.738-21.333 53.191 0 104.391 7.396 153.316 21.049 27.307-57.742 47.502-128 49.778-210.489h-407.609zM512.569 682.382c-48.64 0-95.573 6.542-140.8 18.773 50.916 93.298 116.907 149.333 139.947 167.253 23.040-17.636 89.316-73.956 140.231-167.538-44.658-11.947-91.022-18.489-139.378-18.489zM558.080 869.262c90.453-9.956 172.089-48.356 236.373-106.098-35.84-22.471-73.102-40.107-112.071-53.191-40.107 75.947-90.453 129.138-124.302 159.289zM341.902 710.258c-38.684 13.084-76.231 31.004-111.787 53.476 64.284 57.458 145.636 95.573 235.804 105.529-33.849-30.151-83.911-83.058-124.018-159.004zM341.902 185.742c40.107-75.947 90.169-128.853 124.018-159.004-90.169 9.956-171.804 48.356-236.089 105.813 35.84 22.471 73.102 40.107 112.071 53.191zM682.098 186.027c38.969-13.084 76.231-31.004 112.071-53.476-66.276-59.449-148.196-96.142-236.089-105.813 33.849 30.151 83.911 83.058 124.018 159.289zM745.813 463.076c-2.276 86.187-22.187 159.573-49.778 219.876 42.098 14.507 82.489 34.133 120.889 58.88 70.258-72.818 114.631-170.667 118.329-278.756h-189.44z" />
<glyph unicode="&#xe922;" glyph-name="icon62" d="M877.796 358.969c8.249 0 15.076 6.827 15.076 15.076v147.911c0 0.569-0.284 1.138-0.284 1.707 0 0.284 0 0.284 0 0.569s-0.284 0.284-0.284 0.569c-1.138 7.111-7.111 12.516-14.507 12.516-0.284 0-0.569-0.284-0.853-0.284l-141.938 35.556c-7.964 1.991-16.213-2.844-18.204-10.809s2.844-16.213 10.809-18.204l115.769-29.013-256.853-192.853-137.102 137.102c-5.12 5.12-13.653 5.689-19.627 1.422l-268.516-201.387v554.951c0 8.249-6.827 15.076-15.076 15.076s-14.791-6.827-14.791-15.076v-731.307c0-8.249 6.827-15.076 15.076-15.076h731.307c8.249 0 15.076 6.827 15.076 15.076s-6.827 15.076-15.076 15.076h-716.516v123.733l276.196 207.076 137.102-137.102c5.404-5.12 13.653-5.973 19.627-1.422l268.516 201.387v-117.191c0-8.249 6.827-15.076 15.076-15.076z" />
<glyph unicode="&#xe923;" glyph-name="icon63" d="M804.693 67.982h-219.307c-7.964 0-14.222 6.258-14.222 14.222v205.084h-117.76v-205.084c0-7.964-6.258-14.222-14.222-14.222h-219.876c-7.964 0-14.222 6.258-14.222 14.222v351.573h-131.982c-5.973 0-11.378 3.698-13.369 9.387s-0.284 11.947 4.267 15.644l438.898 365.796c5.404 4.267 13.084 4.267 18.204 0l438.898-365.796c4.551-3.698 6.258-10.24 4.267-15.644-1.991-5.689-7.396-9.387-13.369-9.387h-131.982v-351.573c0-7.68-6.542-14.222-14.222-14.222zM599.324 96.427h190.862v351.573c0 7.964 6.258 14.222 14.222 14.222h106.951l-399.36 333.084-399.644-333.084h106.951c7.964 0 14.222-6.258 14.222-14.222v-351.573h190.862v205.084c0 7.964 6.258 14.222 14.222 14.222h146.204c7.964 0 14.222-6.258 14.222-14.222v-205.084z" />
<glyph unicode="&#xe924;" glyph-name="icon64" d="M713.956 691.484l-80.498 126.578h-242.631l-80.782-126.578h-271.076v-613.547h946.062v613.547h-271.076zM421.262 762.596h181.76l45.227-71.111h-272.213l45.227 71.111zM929.564 133.404h-835.129v502.613h835.413v-502.613zM512 186.027c109.511 0 198.542 89.031 198.542 198.542s-89.031 198.542-198.542 198.542-198.542-89.031-198.542-198.542 89.031-198.542 198.542-198.542zM512 527.929c79.076 0 143.36-64.284 143.36-143.36s-64.284-143.36-143.36-143.36-143.36 64.284-143.36 143.36 64.284 143.36 143.36 143.36zM815.502 583.964h56.32v-56.32h-56.32v56.32z" />
<glyph unicode="&#xe926;" glyph-name="icon60" d="M960.284 144.213l-216.747 216.747c76.231 138.809 55.751 316.871-61.724 434.347-69.12 69.12-160.711 106.951-258.56 106.951s-189.724-37.831-258.56-106.951c-142.507-142.507-142.507-374.613 0-517.12 71.396-71.111 164.978-106.951 258.56-106.951 60.587 0 121.173 15.36 175.787 45.227l216.747-216.747c2.844-2.844 6.542-4.267 9.956-4.267s7.396 1.422 9.956 4.267l124.302 124.302c5.689 5.689 5.689 14.507 0.284 20.196zM184.604 298.382c-131.413 131.413-131.413 345.316 0 476.729 63.716 63.716 148.196 98.702 238.364 98.702s174.649-34.987 238.364-98.702c131.413-131.413 131.413-345.316 0-476.729s-345.316-131.129-476.729 0zM826.027 29.867l-201.671 201.671c20.196 13.369 39.538 29.013 57.458 46.649 17.92 17.92 33.28 36.978 46.649 57.458l201.671-201.671-104.107-104.107z" />
<glyph unicode="&#xe927;" glyph-name="icon57" d="M438.898 577.422v-258.56c0-6.827 7.68-11.093 13.369-7.111l195.129 129.138c5.12 3.413 5.12 11.093 0 14.507l-195.129 129.138c-5.689 3.982-13.369 0-13.369-7.111zM950.898-4.836h-877.796c-7.964 0-14.222 6.258-14.222 14.222v877.796c0 7.964 6.258 14.222 14.222 14.222h877.796c7.964 0 14.222-6.258 14.222-14.222v-877.796c0-7.964-6.258-14.222-14.222-14.222zM87.324 23.609h849.351v849.351h-849.351v-849.351z" />
<glyph unicode="&#xe928;" glyph-name="icon58" d="M731.307 67.982c-2.844 0-5.404 0.853-7.964 2.276l-215.893 143.929h-434.347c-7.964 0-14.222 6.258-14.222 14.222v512c0 7.964 6.258 14.222 14.222 14.222h877.796c7.964 0 14.222-6.258 14.222-14.222v-512c0-7.964-6.258-14.222-14.222-14.222h-205.084v-131.982c0-5.12-2.844-9.956-7.396-12.516-2.276-1.138-4.551-1.707-7.111-1.707zM87.324 242.916h424.676c2.844 0 5.689-0.853 7.964-2.276l197.404-131.413v119.751c0 7.964 6.258 14.222 14.222 14.222h205.084v483.556h-849.351v-483.84zM804.693 543.573h-585.387c-7.964 0-14.222 6.258-14.222 14.222s6.258 14.222 14.222 14.222h585.102c7.964 0 14.222-6.258 14.222-14.222s-6.258-14.222-13.938-14.222zM804.693 397.084h-585.387c-7.964 0-14.222 6.258-14.222 14.222s6.258 14.222 14.222 14.222h585.102c7.964 0 14.222-6.258 14.222-14.222s-6.258-14.222-13.938-14.222z" />
<glyph unicode="&#xe929;" glyph-name="icon59" d="M513.991 348.16c-104.676 0-189.724 85.049-189.724 189.724s85.049 189.724 189.724 189.724 189.724-85.049 189.724-189.724-85.049-189.724-189.724-189.724zM513.991 699.164c-89.031 0-161.28-72.249-161.28-161.28s72.249-161.28 161.28-161.28 161.28 72.249 161.28 161.28c0 89.031-72.249 161.28-161.28 161.28zM950.898 901.12h-877.796c-7.964 0-14.222-6.258-14.222-14.222v-877.796c0-7.964 6.258-14.222 14.222-14.222h877.796c7.964 0 14.222 6.258 14.222 14.222v877.796c0 7.68-6.258 14.222-14.222 14.222zM176.071 23.324c5.689 53.476 46.649 236.942 338.204 236.942 287.858 0 328.249-183.467 333.653-236.942h-671.858zM936.676 23.324h-60.302c-6.258 56.889-50.347 265.387-362.098 265.387-315.449 0-360.107-208.498-366.364-265.387h-60.587v849.351h849.351v-849.351z" />
<glyph unicode="&#xe92a;" glyph-name="icon56" d="M146.204-5.12c-2.276 0-4.836 0.569-7.111 1.707-4.551 2.56-7.111 7.396-7.111 12.516v877.796c0 5.12 2.844 9.956 7.111 12.516 4.551 2.56 9.956 2.56 14.222-0.284l731.307-438.898c4.267-2.56 6.827-7.111 6.827-12.231s-2.56-9.671-6.827-12.231l-731.022-438.898c-2.276-1.422-4.836-1.991-7.396-1.991zM160.427 861.867v-827.449l689.778 413.582-689.778 413.867z" />
<glyph unicode="&#xe92b;" glyph-name="icon55" d="M585.102-5.12c-1.707 0-3.698 0.284-5.404 1.138l-365.796 147.911c-5.404 2.276-8.818 7.396-8.818 13.084v729.884c0 4.836 2.276 9.102 6.258 11.662s9.102 3.129 13.369 1.422l365.796-146.204c5.404-2.276 8.818-7.396 8.818-13.084v-731.307c0-4.836-2.276-9.102-6.258-11.662-2.276-1.991-5.12-2.844-7.964-2.844zM233.529 166.684l337.351-136.249v700.587l-337.351 134.827v-699.164zM804.693 142.791h-219.307c-7.964 0-14.222 6.258-14.222 14.222s6.258 14.222 14.222 14.222h205.084v701.44h-571.164c-7.964 0-14.222 6.258-14.222 14.222s6.258 14.222 14.222 14.222h585.102c7.964 0 14.222-6.258 14.222-14.222v-729.884c0.284-7.964-6.258-14.222-13.938-14.222z" />
<glyph unicode="&#xe92c;" glyph-name="icon54" d="M804.693-5.12c-2.276 0-4.267 0.569-6.258 1.422l-286.436 143.36-286.151-143.36c-4.551-2.276-9.671-1.991-13.938 0.569s-6.827 7.111-6.827 12.231v877.796c0 7.964 6.258 14.222 14.222 14.222h585.102c7.964 0 14.222-6.258 14.222-14.222v-877.796c0-4.836-2.56-9.387-6.827-12.231-1.991-1.138-4.551-1.991-7.111-1.991zM512 169.529c2.276 0 4.267-0.569 6.258-1.422l271.929-135.964v840.533h-556.658v-840.533l271.929 135.964c2.276 1.138 4.267 1.422 6.542 1.422z" />
<glyph unicode="&#xe92d;" glyph-name="icon53" d="M731.307 104.676c-2.844 0-5.404 0.853-7.964 2.276l-215.893 143.929h-434.347c-7.964 0-14.222 6.258-14.222 14.222v512c0 7.964 6.258 14.222 14.222 14.222h877.796c7.964 0 14.222-6.258 14.222-14.222v-512c0-7.964-6.258-14.222-14.222-14.222h-205.084v-131.982c0-5.12-2.844-9.956-7.396-12.516-2.276-1.138-4.551-1.707-7.111-1.707zM87.324 279.324h424.676c2.844 0 5.689-0.853 7.964-2.276l197.404-131.413v119.751c0 7.964 6.258 14.222 14.222 14.222h205.084v483.556h-849.351v-483.84z" />
<glyph unicode="&#xe92e;" glyph-name="icon52" d="M950.898 141.084h-877.796c-7.964 0-14.222 6.258-14.222 14.222v585.387c0 7.964 6.258 14.222 14.222 14.222h877.796c7.964 0 14.222-6.258 14.222-14.222v-585.102c0-7.964-6.258-14.507-14.222-14.507zM87.324 169.529h849.351v556.942h-849.351v-556.942zM512 397.084c-3.129 0-5.973 0.853-8.533 2.844l-438.898 329.387c-6.258 4.836-7.68 13.653-2.844 19.911s13.653 7.68 19.911 2.844l430.364-322.844 430.364 322.844c6.258 4.836 15.076 3.413 19.911-2.844s3.413-15.076-2.844-19.911l-438.898-329.387c-2.56-1.707-5.404-2.844-8.533-2.844z" />
<glyph unicode="&#xe92f;" glyph-name="icon51" d="M512 41.529c-2.56 0-5.12 0.569-7.396 1.991-18.204 10.809-445.724 268.8-445.724 558.649 0 141.084 114.631 255.716 255.716 255.716 76.516 0 149.049-34.702 197.404-93.582 48.356 58.88 120.889 93.582 197.404 93.582 140.8 0 255.716-114.631 255.716-255.716 0-290.133-427.52-547.84-445.724-558.649-2.276-1.422-4.836-1.991-7.396-1.991zM314.596 829.44c-125.156 0-227.271-101.831-227.271-227.271 0-254.009 367.787-494.080 424.676-529.636 56.889 35.556 424.676 275.911 424.676 529.92 0 125.156-101.831 227.271-227.271 227.271-73.671 0-143.36-36.124-185.742-96.711-5.404-7.68-17.92-7.68-23.324 0-42.667 60.302-112.071 96.427-185.742 96.427z" />
<glyph unicode="&#xe930;" glyph-name="icon50" d="M854.187 357.262c-37.547 23.893-64.569 40.96-64.569 90.738v131.698c0 143.929-93.582 199.68-175.787 220.729-0.853 55.751-46.080 100.693-101.831 100.693s-100.978-44.942-101.831-100.693c-81.92-21.333-175.787-76.8-175.787-220.729v-131.698c0-49.778-27.022-66.844-64.569-90.738-49.493-31.289-110.933-70.542-110.933-201.956 0-7.964 6.258-14.222 14.222-14.222h293.831c7.111-71.68 66.844-146.204 145.067-146.204s137.956 74.524 145.067 146.204h293.831c7.964 0 14.222 6.258 14.222 14.222 0 131.698-61.44 170.667-110.933 201.956zM512 872.676c37.831 0 68.836-29.013 72.818-65.707-29.867 5.12-56.32 6.258-72.818 6.258s-42.951-1.138-72.818-6.542c3.982 36.978 34.987 65.991 72.818 65.991zM512 23.324c-62.009 0-109.796 59.449-116.622 117.76h232.96c-6.542-58.027-54.329-117.76-116.338-117.76zM87.609 169.529c3.982 104.107 51.484 134.542 97.564 163.556 38.116 24.462 77.653 49.493 77.653 114.916v131.698c0 61.724 24.178 205.084 249.173 205.084s249.173-143.36 249.173-205.084v-131.698c0-65.422 39.538-90.453 77.653-114.631 46.080-29.298 93.582-59.449 97.564-163.556h-848.782z" />
<glyph unicode="&#xe931;" glyph-name="icon49" d="M512 92.444c-201.671 0-254.293 101.831-256.569 106.098-3.413 7.111-0.569 15.644 6.542 19.058s15.644 0.569 19.058-6.542c0.284-0.853 48.64-90.169 230.969-90.169 182.613 0 230.684 88.747 231.253 89.884 3.698 6.827 12.231 9.671 19.058 6.258s9.671-11.947 6.258-19.058c-2.276-4.551-55.182-105.529-256.569-105.529zM512 190.578c-115.484 0-209.351 93.867-209.351 209.351v291.84c0 117.476 91.876 209.351 209.351 209.351 115.484 0 209.351-93.867 209.351-209.351v-291.84c0-115.484-93.867-209.351-209.351-209.351zM512 872.676c-102.969 0-180.907-77.653-180.907-180.907v-291.84c0-99.84 81.067-180.907 180.907-180.907s180.907 81.067 180.907 180.907v291.84c0 99.84-81.067 180.907-180.907 180.907zM609.564-5.12h-195.129c-7.964 0-14.222 6.258-14.222 14.222s6.258 14.222 14.222 14.222h195.129c7.964 0 14.222-6.258 14.222-14.222s-6.258-14.222-14.222-14.222z" />
<glyph unicode="&#xe932;" glyph-name="icon48" d="M877.796-5.12h-731.591c-7.964 0-14.222 6.258-14.222 14.222v877.796c0 7.964 6.258 14.222 14.222 14.222h731.307c7.964 0 14.222-6.258 14.222-14.222v-877.796c0.284-7.964-6.258-14.222-13.938-14.222zM160.427 23.324h702.862v849.351h-702.862v-849.351zM731.307 726.471h-439.467c-7.964 0-14.222 6.258-14.222 14.222s6.258 14.222 14.222 14.222h439.751c7.964 0 14.222-6.258 14.222-14.222s-6.542-14.222-14.507-14.222zM512 141.084h-222.72c-7.964 0-14.222 6.258-14.222 14.222s6.258 14.222 14.222 14.222h222.72c7.964 0 14.222-6.258 14.222-14.222s-6.258-14.222-14.222-14.222zM731.307 579.982h-439.467c-7.964 0-14.222 6.258-14.222 14.222s6.258 14.222 14.222 14.222h439.751c7.964 0 14.222-6.258 14.222-14.222s-6.542-14.222-14.507-14.222zM731.307 433.778h-439.467c-7.964 0-14.222 6.258-14.222 14.222s6.258 14.222 14.222 14.222h439.751c7.964 0 14.222-6.258 14.222-14.222s-6.542-14.222-14.507-14.222zM731.307 287.573h-439.467c-7.964 0-14.222 6.258-14.222 14.222s6.258 14.222 14.222 14.222h439.751c7.964 0 14.222-6.258 14.222-14.222s-6.542-14.222-14.507-14.222z" />
<glyph unicode="&#xe933;" glyph-name="icon47" d="M877.796-5.12h-731.591c-7.964 0-14.222 6.258-14.222 14.222v219.307c0 7.964 6.258 14.222 14.222 14.222s14.222-6.258 14.222-14.222v-205.084h702.862v205.084c0 7.964 6.258 14.222 14.222 14.222s14.222-6.258 14.222-14.222v-219.307c0.284-7.964-6.258-14.222-13.938-14.222zM704.853 421.547c-5.689 5.689-14.507 5.689-20.196 0l-158.72-158.72v624.071c0 7.964-6.258 14.222-14.222 14.222s-14.222-6.258-14.222-14.222v-624.071l-158.72 158.72c-5.689 5.689-14.507 5.689-20.196 0s-5.689-14.507 0-20.196l182.898-182.898c1.422-1.422 2.844-2.276 4.551-3.129s3.698-1.138 5.404-1.138 3.698 0.284 5.404 1.138c1.707 0.853 3.413 1.707 4.551 3.129l182.898 182.898c6.258 5.689 6.258 14.507 0.569 20.196z" />
<glyph unicode="&#xe934;" glyph-name="icon46" d="M250.027 29.867h-176.924c-7.964 0-14.222 6.258-14.222 14.222v531.058c0 7.964 6.258 14.222 14.222 14.222h176.924c7.964 0 14.222-6.258 14.222-14.222v-531.058c0-7.68-6.258-14.222-14.222-14.222zM87.324 58.311h148.48v502.613h-148.48v-502.613zM833.138 29.867h-494.364c-7.964 0-14.222 6.258-14.222 14.222v531.058c0 2.844 0.853 5.689 2.276 7.964l176.924 265.387c1.707 2.844 4.551 4.836 7.68 5.689 56.036 16.782 101.262 15.36 134.827-4.267 29.867-17.636 50.062-49.493 60.302-94.72 0.569-3.129 0.284-6.542-1.138-9.387l-78.222-156.444h238.364c27.876 0 54.329-11.662 73.387-32.142 18.773-20.48 28.16-48.071 25.884-75.662l-29.867-358.116c-4.551-52.338-49.209-93.582-101.831-93.582zM352.996 58.311h480.427c37.831 0 70.258 29.582 73.387 67.413l29.867 358.116c1.707 20.196-4.836 39.253-18.489 54.044s-32.142 23.040-52.338 23.040h-261.404c-4.836 0-9.387 2.56-12.231 6.827s-2.844 9.387-0.569 13.938l86.187 172.373c-8.533 34.702-23.893 58.596-45.796 71.396-25.316 15.076-61.44 15.929-107.236 3.129l-171.804-257.707v-512.569z" />
<glyph unicode="&#xe935;" glyph-name="icon45" d="M957.156 826.311c-3.698 1.991-92.444 45.511-225.849 45.511-111.502 0-192-59.449-219.307-82.773-27.307 23.324-107.804 82.773-219.307 82.773-133.404 0-222.151-43.52-225.849-45.511-4.836-2.276-7.964-7.111-7.964-12.516v-731.307c0-4.836 2.56-9.387 6.827-11.947s9.387-2.844 13.938-0.569c0.853 0.284 86.756 42.382 213.049 42.382s212.196-42.098 213.049-42.382c0 0 0.284 0 0.284 0 1.707-0.853 3.698-1.422 5.973-1.422s4.267 0.569 5.973 1.422c0 0 0.284 0 0.284 0 0.853 0.284 86.756 42.382 213.049 42.382s212.196-42.098 213.049-42.382c1.991-1.138 4.267-1.422 6.258-1.422 2.56 0 5.12 0.853 7.396 2.276 4.267 2.56 6.827 7.111 6.827 11.947v731.022c0.284 5.404-2.844 10.24-7.68 12.516zM87.324 103.822v700.587c23.893 10.24 100.693 38.969 205.369 38.969 108.373 0 186.596-63.431 205.084-79.644v-659.911c-33.849 13.084-107.236 36.693-205.084 36.693s-171.236-23.324-205.369-36.693zM936.676 103.822c-33.849 13.084-107.52 36.409-205.084 36.409-97.849 0-171.52-23.324-205.084-36.693v660.196c18.489 16.498 96.711 79.644 205.084 79.644 104.391 0 181.191-28.729 205.084-38.969v-700.587z" />
<glyph unicode="&#xe936;" glyph-name="icon44" d="M512-5.12c-249.742 0-453.12 203.378-453.12 453.12s203.378 453.12 453.12 453.12 453.12-203.378 453.12-453.12-203.378-453.12-453.12-453.12zM512 872.676c-234.098 0-424.676-190.578-424.676-424.676s190.578-424.676 424.676-424.676 424.676 190.578 424.676 424.676-190.578 424.676-424.676 424.676zM512 170.382c-7.964 0-14.222 6.258-14.222 14.222v351.289c0 7.964 6.258 14.222 14.222 14.222s14.222-6.258 14.222-14.222v-351.004c0-7.964-6.258-14.507-14.222-14.507zM555.804 667.307c0-24.193-19.612-43.804-43.804-43.804s-43.804 19.612-43.804 43.804c0 24.193 19.612 43.804 43.804 43.804s43.804-19.612 43.804-43.804z" />
<glyph unicode="&#xe937;" glyph-name="icon43" d="M775.396 535.893h147.058c7.964 0 14.222 6.258 14.222 14.222v147.058c0 7.964-6.258 14.222-14.222 14.222h-147.058c-7.964 0-14.222-6.258-14.222-14.222v-59.164h-234.951v248.889c0 7.964-6.258 14.222-14.222 14.222s-14.222-6.258-14.222-14.222v-73.671h-234.951v66.844c0 7.964-6.258 14.222-14.222 14.222h-147.058c-7.964 0-14.222-6.258-14.222-14.222v-147.058c0-7.964 6.258-14.222 14.222-14.222h147.058c7.964 0 14.222 6.258 14.222 14.222v51.769h234.951v-322.56h-234.951v59.164c0 7.964-6.258 14.222-14.222 14.222h-147.058c-7.964 0-14.222-6.258-14.222-14.222v-147.058c0-7.964 6.258-14.222 14.222-14.222h147.058c7.964 0 14.222 6.258 14.222 14.222v59.449h234.951v-322.56h-234.951v59.164c0 7.964-6.258 14.222-14.222 14.222h-147.058c-7.964 0-14.222-6.258-14.222-14.222v-147.058c0-7.964 6.258-14.222 14.222-14.222h147.058c7.964 0 14.222 6.258 14.222 14.222v59.164h234.951v-73.671c0-7.964 6.258-14.222 14.222-14.222s14.222 6.258 14.222 14.222v249.173h234.951v-59.164c0-7.964 6.258-14.222 14.222-14.222h147.058c7.964 0 14.222 6.258 14.222 14.222v147.058c0 7.964-6.258 14.222-14.222 14.222h-147.058c-7.964 0-14.222-6.258-14.222-14.222v-59.164h-234.951v322.56h234.951v-59.164c0-7.964 6.258-14.222 14.222-14.222zM234.382 747.236h-118.613v118.613h118.613v-118.613zM234.382 388.836h-118.613v118.613h118.613v-118.613zM234.382 37.547h-118.613v118.613h118.613v-118.613zM789.618 331.662h118.613v-118.613h-118.613v118.613zM789.618 682.951h118.613v-118.613h-118.613v118.613z" />
<glyph unicode="&#xe938;" glyph-name="icon42" d="M512 256.284c-104.676 0-189.724 85.049-189.724 189.724s85.049 189.724 189.724 189.724 189.724-85.049 189.724-189.724-85.049-189.724-189.724-189.724zM512 607.289c-89.031 0-161.28-72.249-161.28-161.28s72.249-161.28 161.28-161.28 161.28 72.249 161.28 161.28c0 89.031-72.249 161.28-161.28 161.28zM622.080 8.818c-5.12 0-9.671 2.56-12.231 7.111l-40.96 71.111c-37.262-5.973-76.231-5.973-113.778 0l-40.96-71.111c-3.129-5.404-9.671-8.249-15.929-6.542-39.253 10.24-77.369 25.884-112.64 46.364-35.556 20.48-67.982 45.511-96.427 74.524-4.551 4.551-5.404 11.662-2.276 17.067l40.96 71.111c-24.178 29.867-43.236 62.862-56.889 98.418h-81.92c-6.542 0-11.947 4.267-13.653 10.524-11.093 38.969-16.498 79.644-16.498 120.604s5.404 81.636 16.213 120.889c1.707 6.258 7.396 10.524 13.653 10.524h77.938c15.076 40.391 34.987 73.102 60.302 99.271l-40.107 69.973c-3.129 5.689-2.276 12.516 2.276 17.067 28.444 29.013 60.871 54.044 96.427 74.524s73.387 36.124 112.64 46.364c6.258 1.707 12.8-1.138 15.929-6.542l40.96-71.111c37.262 5.973 76.231 5.973 113.778 0l40.96 71.111c3.129 5.404 9.671 8.249 15.929 6.542 39.253-10.24 77.369-25.884 112.64-46.364 35.556-20.48 67.982-45.511 96.427-74.524 4.551-4.551 5.404-11.662 2.276-17.067l-40.96-71.111c24.178-29.867 43.236-62.862 56.889-98.418h82.204c6.542 0 11.947-4.267 13.653-10.524 10.809-39.253 16.213-79.929 16.213-120.889s-5.404-81.636-16.213-120.889c-1.707-6.258-7.396-10.524-13.653-10.524h-82.204c-13.653-35.556-32.711-68.551-56.889-98.418l40.96-71.111c3.129-5.404 2.276-12.516-2.276-17.067-28.444-29.013-60.871-54.044-96.427-74.524s-73.387-36.124-112.64-46.364c-1.138 0.284-2.276 0-3.698 0zM576.284 116.907c5.12 0 9.671-2.56 12.231-7.111l40.391-70.258c33.28 9.387 65.138 23.040 95.289 40.676 30.151 17.351 58.027 38.4 82.773 62.293l-40.676 70.258c-3.129 5.12-2.276 11.662 1.422 16.498 27.022 31.573 47.787 67.413 61.724 106.667 1.991 5.689 7.396 9.387 13.369 9.387h81.067c8.249 33.564 12.516 67.982 12.516 102.684s-4.267 69.404-12.516 102.684h-81.067c-5.973 0-11.378 3.698-13.369 9.387-13.938 38.969-34.418 75.093-61.724 106.667-3.982 4.551-4.551 11.093-1.422 16.498l40.676 70.258c-24.747 23.893-52.622 44.942-82.773 62.293s-62.009 31.004-95.289 40.676l-40.391-70.258c-3.129-5.12-8.818-7.964-14.791-6.827-40.107 7.396-83.058 7.396-123.164 0-5.973-1.138-11.947 1.707-14.791 6.827l-40.391 70.258c-33.28-9.387-65.138-23.040-95.289-40.676-30.436-17.351-58.311-38.4-83.058-62.293l40.391-70.258c3.413-5.689 2.276-13.084-2.56-17.351-28.16-26.453-49.209-60.871-64.569-105.529-1.991-5.689-7.396-9.671-13.369-9.671h-77.084c-8.249-33.28-12.516-67.982-12.516-102.684s4.267-69.404 12.516-102.684h81.067c5.973 0 11.378-3.698 13.369-9.387 13.938-39.253 34.702-75.093 61.724-106.951 3.982-4.551 4.551-11.093 1.422-16.498l-40.676-70.258c24.747-23.893 52.622-44.942 82.773-62.293s62.009-31.004 95.289-40.676l40.391 70.258c3.129 5.12 8.818 7.964 14.791 6.827 40.107-7.396 83.058-7.396 123.164 0 1.422 0.569 2.276 0.569 3.129 0.569z" />
<glyph unicode="&#xe939;" glyph-name="icon41" d="M950.898 791.324h-643.982v95.573c0 7.964-6.258 14.222-14.222 14.222h-219.591c-7.964 0-14.222-6.258-14.222-14.222v-219.307c0-7.964 6.258-14.222 14.222-14.222h219.307c7.964 0 14.222 6.258 14.222 14.222v95.289h643.982c7.964 0 14.222 6.258 14.222 14.222s-5.973 14.222-13.938 14.222zM278.471 681.529h-191.147v191.147h190.862v-191.147zM950.898 133.12h-643.982v95.573c0 7.964-6.258 14.222-14.222 14.222h-219.591c-7.964 0-14.222-6.258-14.222-14.222v-219.307c0-7.964 6.258-14.222 14.222-14.222h219.307c7.964 0 14.222 6.258 14.222 14.222v95.573h643.982c7.964 0 14.222 6.258 14.222 14.222s-5.973 13.938-13.938 13.938zM278.471 23.324h-191.147v190.862h190.862v-190.862zM950.898 572.018h-219.307c-7.964 0-14.222-6.258-14.222-14.222v-95.573h-644.267c-7.964 0-14.222-6.258-14.222-14.222s6.258-14.222 14.222-14.222h643.982v-95.573c0-7.964 6.258-14.222 14.222-14.222h219.307c7.964 0 14.222 6.258 14.222 14.222v219.307c0.284 7.964-5.973 14.507-13.938 14.507zM936.676 352.427h-190.862v190.862h190.862v-190.862z" />
<glyph unicode="&#xe93a;" glyph-name="icon40" d="M512-5.12c-2.56 0-5.12 0.853-7.68 2.276-14.507 9.102-357.831 227.271-357.831 538.738 0.284 201.387 164.124 365.227 365.511 365.227s365.227-163.84 365.227-365.227c0-311.467-343.040-529.636-357.831-538.738-2.276-1.422-4.836-2.276-7.396-2.276zM512 872.676c-185.742 0-336.782-151.040-336.782-336.782 0-271.076 286.436-475.591 336.782-509.724 50.631 33.849 336.782 238.649 336.782 509.724 0 185.742-151.040 336.782-336.782 336.782zM512 389.973c-92.444 0-167.822 75.378-167.822 167.822s75.378 167.822 167.822 167.822 167.822-75.378 167.822-167.822c0-92.729-75.378-167.822-167.822-167.822zM512 697.173c-76.8 0-139.378-62.578-139.378-139.378s62.578-139.378 139.378-139.378 139.378 62.578 139.378 139.378c0 76.8-62.578 139.378-139.378 139.378z" />
<glyph unicode="&#xe93b;" glyph-name="icon39" d="M257.991-5.12h-184.889c-7.964 0-14.222 6.258-14.222 14.222v184.889c0 3.698 1.422 7.396 4.267 9.956l517.689 517.689c5.689 5.689 14.507 5.689 20.196 0l184.889-184.889c5.689-5.689 5.689-14.507 0-20.196l-517.689-517.689c-2.844-2.56-6.542-3.982-10.24-3.982zM87.324 23.324h164.693l503.467 503.467-164.693 164.693-503.467-503.467v-164.693zM858.453 595.342c-3.698 0-7.396 1.422-9.956 4.267l-184.889 184.889c-2.56 2.56-4.267 6.258-4.267 9.956s1.422 7.396 4.267 9.956l92.444 92.444c2.56 2.56 6.258 4.267 9.956 4.267 3.982 0 98.987-0.569 148.764-50.347s50.347-144.498 50.347-148.764c0-3.698-1.422-7.396-4.267-9.956l-92.444-92.444c-2.56-2.844-6.258-4.267-9.956-4.267zM693.76 794.453l164.693-164.693 77.938 77.938c-0.853 19.911-6.542 87.609-41.813 122.88s-102.684 40.96-122.88 41.813l-77.938-77.938z" />
<glyph unicode="&#xe93c;" glyph-name="icon38" d="M512-5.12c-249.742 0-453.12 203.378-453.12 453.12s203.378 453.12 453.12 453.12 453.12-203.378 453.12-453.12-203.378-453.12-453.12-453.12zM512 872.676c-234.098 0-424.676-190.578-424.676-424.676s190.578-424.676 424.676-424.676 424.676 190.578 424.676 424.676-190.578 424.676-424.676 424.676zM731.307 462.222h-205.084v205.084c0 7.964-6.258 14.222-14.222 14.222s-14.222-6.258-14.222-14.222v-205.084h-205.084c-7.964 0-14.222-6.258-14.222-14.222s6.258-14.222 14.222-14.222h205.084v-205.084c0-7.964 6.258-14.222 14.222-14.222s14.222 6.258 14.222 14.222v205.084h205.084c7.964 0 14.222 6.258 14.222 14.222s-6.258 14.222-14.222 14.222z" />
<glyph unicode="&#xe93d;" glyph-name="icon37" d="M928.996 864.996h-833.991c-28.729 0-52.053-23.324-52.053-52.053v-729.884c0-28.729 23.324-52.053 52.053-52.053h833.991c28.729 0 52.053 23.324 52.053 52.053v729.884c0 28.729-23.324 52.053-52.053 52.053zM946.347 691.2c-9.671 0-17.351-7.68-17.351-17.351v-34.702c0-9.671 7.68-17.351 17.351-17.351v-538.738c0-9.671-7.68-17.351-17.351-17.351h-833.991c-9.671 0-17.351 7.68-17.351 17.351v538.738c9.671 0 17.351 7.68 17.351 17.351v34.702c0 9.671-7.68 17.351-17.351 17.351v121.742c0 9.671 7.68 17.351 17.351 17.351h833.991c9.671 0 17.351-7.68 17.351-17.351v-121.742zM205.653 675.556c-15.644 0-28.444-12.8-28.444-28.444s12.8-28.444 28.444-28.444h612.409c15.644 0 28.444 12.8 28.444 28.444s-12.8 28.444-28.444 28.444h-612.409zM833.138 514.56h-642.276c-9.956 0-17.92-7.964-17.92-17.92v-321.138c0-9.956 7.964-17.92 17.92-17.92h641.991c9.956 0 17.92 7.964 17.92 17.92v321.138c0 9.956-7.964 17.92-17.636 17.92zM333.653 193.422h-124.871v124.871h124.871v-124.871zM333.653 353.849h-124.871v124.871h124.871v-124.871zM494.080 193.422h-124.871v124.871h124.871v-124.871zM494.080 353.849h-124.871v124.871h124.871v-124.871zM654.791 193.422h-124.871v124.871h124.871v-124.871zM654.791 353.849h-124.871v124.871h124.871v-124.871zM815.218 193.422h-124.871v124.871h124.871v-124.871zM815.218 353.849h-124.871v124.871h124.871v-124.871z" />
<glyph unicode="&#xe93e;" glyph-name="icon36" d="M336.498-5.12c-56.32 0-102.116 45.796-102.116 102.116s45.796 102.116 102.116 102.116 102.116-45.796 102.116-102.116-45.796-102.116-102.116-102.116zM336.498 170.382c-40.676 0-73.671-32.996-73.671-73.671s32.996-73.671 73.671-73.671 73.671 32.996 73.671 73.671-33.28 73.671-73.671 73.671zM775.396-5.12c-56.32 0-102.116 45.796-102.116 102.116s45.796 102.116 102.116 102.116 102.116-45.796 102.116-102.116-46.080-102.116-102.116-102.116zM775.396 170.382c-40.676 0-73.671-32.996-73.671-73.671s32.996-73.671 73.671-73.671 73.671 32.996 73.671 73.671-33.28 73.671-73.671 73.671zM863.004 258.276h-614.4c-7.111 0-13.084 5.12-14.222 12.231l-85.902 602.169h-75.378c-7.964 0-14.222 6.258-14.222 14.222s6.258 14.222 14.222 14.222h87.893c7.111 0 13.084-5.12 14.222-12.231l23.324-163.271c0 0 0 0 0.284 0h752.356c4.267 0 8.249-1.991 11.093-5.12 2.56-3.413 3.698-7.68 2.844-11.947l-87.893-438.898c-1.422-6.542-7.396-11.378-14.222-11.378zM261.12 286.72h590.507l82.204 410.453h-731.307l58.596-410.453z" />
<glyph unicode="&#xe93f;" glyph-name="icon35" d="M804.693 678.4h-731.591c-7.964 0-14.222-6.258-14.222-14.222v-581.973c0-7.964 6.258-14.222 14.222-14.222h731.307c7.964 0 14.222 6.258 14.222 14.222v581.973c0.284 7.964-6.258 14.222-13.938 14.222zM790.471 649.956v-375.467l-127.431 81.636c-4.836 3.129-10.809 2.844-15.644 0l-116.053-77.369-199.68 159.858c-5.12 3.982-11.947 4.267-17.067 0.569l-226.987-162.418v373.191h702.862zM87.324 96.427v144.782l234.667 168.107 199.396-159.573c4.836-3.982 11.662-4.267 16.782-0.853l116.907 77.938 135.111-86.187v-144.213h-702.862zM696.604 510.293c0-22.936-18.593-41.529-41.529-41.529s-41.529 18.593-41.529 41.529c0 22.936 18.593 41.529 41.529 41.529s41.529-18.593 41.529-41.529zM950.898 214.471h-73.102c-7.964 0-14.222 6.258-14.222 14.222s6.258 14.222 14.222 14.222h58.88v556.658h-703.147v-58.88c0-7.964-6.258-14.222-14.222-14.222s-14.222 6.258-14.222 14.222v73.102c0 7.964 6.258 14.222 14.222 14.222h731.307c7.964 0 14.222-6.258 14.222-14.222v-585.102c0.284-7.964-5.973-14.222-13.938-14.222z" />
<glyph unicode="&#xe940;" glyph-name="icon34" d="M841.102 251.449c-45.227 0-85.049-23.893-107.804-59.449l-430.933 212.48c4.836 13.653 7.964 28.16 7.964 43.52s-3.129 29.867-7.964 43.52l430.933 212.48c22.756-35.556 62.578-59.449 107.804-59.449 70.827 0 128.284 57.458 128.284 128.284s-57.458 128.284-128.284 128.284-128.284-57.458-128.284-128.284c0-15.36 3.129-29.867 7.964-43.52l-430.933-212.48c-22.756 35.556-62.578 59.449-107.804 59.449-70.827 0-128.284-57.458-128.284-128.284s57.458-128.284 128.284-128.284c45.227 0 85.049 23.893 107.804 59.449l430.933-212.48c-4.836-13.653-7.964-28.16-7.964-43.52 0-70.827 57.458-128.284 128.284-128.284s128.284 57.458 128.284 128.284-57.458 128.284-128.284 128.284zM841.102 872.676c55.182 0 99.84-44.942 99.84-99.84s-44.942-99.84-99.84-99.84-99.84 44.942-99.84 99.84 44.658 99.84 99.84 99.84zM182.044 348.16c-55.182 0-99.84 44.942-99.84 99.84s44.942 99.84 99.84 99.84 99.84-44.658 99.84-99.84-44.658-99.84-99.84-99.84zM841.102 23.324c-55.182 0-99.84 44.942-99.84 99.84s44.942 99.84 99.84 99.84 99.84-44.942 99.84-99.84-44.658-99.84-99.84-99.84z" />
<glyph unicode="&#xe941;" glyph-name="icon65" d="M270.865 960c-128.826 0-227.923-99.097-227.923-227.923v-340.232c0-125.523 102.4-227.923 227.923-227.923 122.219 0 227.923 99.097 227.923 227.923v340.232c-3.303 125.523-102.4 227.923-227.923 227.923zM472.361 408.361c0-115.613-92.49-208.103-201.497-208.103s-201.497 92.49-201.497 208.103v310.503c0 115.613 85.884 208.103 201.497 208.103 112.31 0 201.497-92.49 201.497-208.103v-310.503zM386.477-64h-231.226c-9.91 0-16.516 6.606-16.516 16.516v0c0 9.91 6.606 16.516 16.516 16.516h231.226c9.91 0 16.516-6.606 16.516-16.516v0c0-9.91-9.91-16.516-16.516-16.516zM270.865 68.129c-105.703 0-194.89 52.852-231.226 132.129h-39.639c33.032-95.794 142.039-165.161 270.865-165.161 125.523 0 237.832 69.368 270.865 165.161h-36.335c-39.639-79.277-132.129-132.129-234.529-132.129z" />
<glyph unicode="&#xe942;" glyph-name="icon66" d="M5.167 458.097c-4.097-9.95-1.756-21.656 5.853-29.266l484.929-484.929c10.828-10.243 27.802-9.95 38.045 0.585 9.95 10.536 9.95 26.924 0 37.46l-438.983 438.983h902.548c14.925 0 26.924 11.999 26.924 26.924s-11.999 26.924-26.924 26.924h-902.548l438.983 438.983c10.828 10.243 11.121 27.51 0.585 38.045-10.243 10.828-27.51 11.121-38.045 0.585-0.293-0.293-0.585-0.293-0.585-0.585l-484.929-485.222c-2.634-2.341-4.39-5.268-5.853-8.487z" />
<glyph unicode="&#xe943;" glyph-name="icon67" d="M1022.436 437.903c4.097 9.95 1.756 21.656-5.853 29.266l-485.222 485.222c-10.828 10.243-27.802 9.95-38.045-0.585-9.95-10.536-9.95-26.924 0-37.46l438.983-438.983h-902.256c-14.925 0-26.924-11.999-26.924-26.924s11.999-26.924 26.924-26.924h902.548l-438.983-438.983c-10.828-10.243-11.121-27.51-0.585-38.045 10.243-10.828 27.51-11.121 38.045-0.585 0.293 0.293 0.585 0.293 0.585 0.585l484.929 484.929c2.634 2.341 4.39 5.268 5.853 8.487z" />
<glyph unicode="&#xe944;" glyph-name="icon68" d="M328.652 960.585c5.853 0 11.706-2.341 15.803-6.438l490.197-490.197c8.78-8.78 8.78-22.827 0-31.607l-490.197-490.197c-8.487-8.78-22.534-9.072-31.607-0.585-8.78 8.487-9.072 22.534-0.585 31.607 0.293 0.293 0.293 0.293 0.585 0.585l474.394 474.394-474.394 474.394c-8.78 8.78-8.78 22.827 0 31.607 4.097 4.097 9.95 6.438 15.803 6.438z" />
<glyph unicode="&#xe945;" glyph-name="icon69" d="M984.522 819.587h-697.104v103.6c0 8.487-7.024 15.511-15.511 15.511h-237.343c-8.487 0-15.511-7.024-15.511-15.511 0 0 0 0 0 0v-237.636c0-8.487 6.731-15.511 15.218-15.511 0 0 0 0 0 0h237.636c8.487 0 15.511 6.731 15.511 15.218 0 0 0 0 0 0v103.6h697.104c8.487 0.585 14.925 7.902 14.34 16.389-0.293 7.902-6.438 14.047-14.34 14.34v0zM256.688 701.062h-206.614v206.322h206.614v-206.322zM984.522 106.972h-697.104v103.307c0 8.487-7.024 15.511-15.511 15.511h-237.343c-8.487 0-15.511-7.024-15.511-15.511v-237.343c0-8.487 7.024-15.511 15.511-15.511h237.636c8.487 0 15.511 7.024 15.511 15.511v103.307h697.104c8.487-0.585 15.803 5.853 16.389 14.34s-5.853 15.803-14.34 16.389c-0.878 0-1.463 0-2.341 0v0zM256.688-11.846h-206.614v206.907h206.614v-206.907zM984.522 582.244h-237.636c-8.487 0-15.511-6.731-15.511-15.218 0 0 0 0 0 0v-103.307h-696.812c-8.487 0.585-15.803-5.853-16.389-14.34s5.853-15.803 14.34-16.389c0.585 0 1.463 0 2.049 0h697.104v-103.307c0-8.487 7.024-15.511 15.511-15.511h237.636c8.487 0 15.511 7.024 15.511 15.511v237.636c-0.293 7.902-7.024 14.925-15.803 14.925 0.293 0 0.293 0 0 0zM969.304 344.608h-206.614v206.907h206.907l-0.293-206.907z" />
</font>
</defs>
</svg>
