<?xml version="1.0" encoding="utf-8"?>
<!-- Generator: Adobe Illustrator 24.1.0, SVG Export Plug-In . SVG Version: 6.00 Build 0)  -->
<svg version="1.1" id="Capa_1" xmlns="http://www.w3.org/2000/svg" xmlns:xlink="http://www.w3.org/1999/xlink" x="0px" y="0px"
	 viewBox="0 0 226 226" style="enable-background:new 0 0 226 226;" xml:space="preserve">
<style type="text/css">
	.st0{fill:#E91B1E;}
	.st1{fill:#FFFFFF;}
</style>
<g>
	<rect x="0" class="st0" width="226" height="226"/>
	<path class="st1" d="M165,142.3c0,27.9-24.6,42.2-49,42.2c-19.3,0-33.8-9-42.8-19.5l-4.3,17.2H61v-40.4h8.6
		c8.4,18.4,26.4,27.1,41.4,27.1c12.3,0,22.3-5.9,22.3-17.2c0-12.9-12.7-17.4-30.1-25.8c-17.8-8.6-38.9-18.7-38.9-44.5
		c0-25.6,20.9-40,45.3-40c18.2,0,29.5,8,36.1,14.8l3.5-14.8h7.8v37.7h-8.6C142.6,63,126.6,56,113.3,56c-10.9,0-19.5,4.7-19.5,14.6
		c0,13.1,15.4,18.2,33.6,27.1C146.1,106.6,165,118.1,165,142.3z"/>
</g>
</svg>
